<?xml version="1.0" standalone="no"?>
<!DOCTYPE svg PUBLIC "-//W3C//DTD SVG 20010904//EN"
 "http://www.w3.org/TR/2001/REC-SVG-20010904/DTD/svg10.dtd">
<svg version="1.0" xmlns="http://www.w3.org/2000/svg"
 width="539.000000pt" height="425.000000pt" viewBox="0 0 539.000000 425.000000"
 preserveAspectRatio="xMidYMid meet">

<g transform="translate(0.000000,425.000000) scale(0.100000,-0.100000)"
fill="#ff0000" stroke="none">
<path d="M2400 3814 c-25 -7 -74 -14 -110 -14 -41 0 -72 -6 -84 -15 -11 -8
-32 -15 -47 -15 -15 0 -40 -7 -55 -15 -16 -8 -39 -15 -51 -15 -12 0 -25 -4
-28 -10 -3 -5 -16 -10 -29 -10 -12 0 -31 -7 -42 -15 -10 -8 -29 -15 -40 -15
-12 0 -27 -7 -34 -15 -7 -8 -22 -15 -34 -15 -11 0 -30 -7 -40 -15 -11 -8 -28
-15 -38 -15 -10 0 -18 -4 -18 -10 0 -5 -11 -12 -25 -16 -14 -3 -25 -10 -25
-14 0 -4 -8 -10 -17 -14 -10 -3 -31 -15 -48 -26 -16 -11 -39 -24 -50 -30 -36
-18 -60 -35 -68 -47 -4 -7 -12 -13 -17 -13 -12 0 -40 -24 -152 -132 -92 -89
-252 -291 -288 -363 -11 -22 -26 -51 -34 -65 -26 -45 -76 -161 -76 -175 0 -8
-4 -16 -9 -19 -5 -3 -11 -18 -14 -33 -11 -53 -26 -118 -36 -160 -6 -24 -15
-61 -20 -83 -4 -21 -27 -78 -50 -124 -22 -47 -41 -97 -41 -111 0 -68 90 -155
160 -155 87 0 170 87 170 177 0 33 -22 88 -37 95 -5 1 -20 18 -35 36 -22 26
-26 39 -21 70 11 72 56 198 112 317 129 271 315 487 561 652 70 47 196 123
205 123 2 0 36 15 77 34 69 31 119 48 248 83 145 39 420 55 559 32 109 -18
255 -51 265 -60 6 -5 21 -9 34 -9 13 0 36 -6 50 -14 15 -8 72 -36 127 -62 341
-161 592 -413 794 -797 22 -43 41 -85 41 -93 0 -8 5 -23 10 -34 6 -11 15 -29
20 -40 6 -11 10 -27 10 -35 0 -8 4 -23 9 -33 14 -25 40 -132 61 -252 33 -185
25 -338 -27 -545 -8 -33 -18 -75 -20 -93 -3 -18 -9 -35 -14 -38 -5 -3 -9 -14
-9 -25 0 -10 -4 -27 -9 -37 -5 -9 -24 -46 -41 -82 -69 -139 -84 -167 -120
-220 -20 -30 -53 -80 -73 -110 -20 -31 -65 -85 -99 -122 -68 -73 -255 -227
-275 -228 -7 0 -13 -4 -13 -10 0 -5 -6 -10 -14 -10 -8 0 -44 -20 -80 -45 -37
-25 -75 -45 -85 -45 -10 0 -24 -7 -31 -15 -7 -8 -17 -15 -23 -15 -18 0 -87
-33 -87 -42 0 -4 -8 -8 -18 -8 -10 0 -27 -7 -38 -15 -10 -8 -38 -15 -62 -15
-23 0 -59 -7 -79 -15 -19 -8 -55 -15 -78 -15 -23 0 -59 -7 -78 -15 -51 -21
-420 -21 -457 0 -14 8 -44 14 -66 15 -23 0 -58 7 -77 15 -20 8 -53 15 -74 15
-21 0 -47 7 -57 15 -11 8 -28 15 -38 15 -10 0 -18 4 -18 9 0 5 -13 12 -30 16
-17 4 -30 11 -30 16 0 5 -8 9 -18 9 -10 0 -27 7 -38 15 -10 8 -28 15 -39 15
-29 1 -79 57 -104 115 -31 71 -56 86 -146 88 -58 1 -78 -3 -94 -17 -34 -31
-61 -101 -61 -160 0 -47 4 -58 33 -88 43 -46 70 -56 151 -61 42 -2 71 -8 74
-15 2 -7 8 -12 14 -12 10 0 25 -6 143 -60 119 -54 133 -60 144 -60 6 0 19 -5
29 -10 57 -33 423 -100 547 -100 68 0 339 36 411 55 267 69 514 195 789 401
144 108 142 107 206 194 361 494 483 1077 338 1600 -26 91 -89 253 -131 335
-28 55 -143 233 -157 245 -4 3 -28 34 -55 70 -47 64 -136 161 -192 210 -121
105 -230 187 -323 242 -43 25 -66 37 -184 94 -26 13 -63 26 -82 30 -19 3 -38
10 -41 15 -3 5 -17 9 -32 9 -15 0 -40 7 -56 15 -15 8 -42 15 -60 15 -17 1 -42
7 -56 15 -14 8 -51 14 -82 15 -31 0 -83 7 -115 15 -76 20 -329 20 -393 -1z"/>
<path d="M2386 3396 c-15 -9 -49 -16 -75 -16 -26 0 -56 -7 -67 -15 -10 -8 -32
-15 -49 -15 -16 0 -39 -7 -49 -15 -11 -8 -31 -15 -45 -15 -14 0 -35 -7 -45
-15 -11 -8 -28 -15 -37 -15 -10 0 -19 -3 -21 -7 -4 -11 -67 -43 -83 -43 -7 0
-15 -7 -19 -15 -3 -8 -14 -15 -24 -15 -11 0 -25 -7 -32 -15 -7 -8 -17 -15 -23
-15 -27 0 -277 -239 -346 -333 -40 -53 -92 -142 -111 -187 -7 -19 -16 -37 -19
-40 -24 -21 -102 -224 -122 -318 -29 -133 -41 -418 -21 -502 25 -106 34 -138
53 -195 31 -93 33 -95 99 -215 61 -112 205 -293 284 -360 23 -19 66 -57 97
-85 63 -58 186 -122 299 -156 41 -13 79 -26 85 -31 5 -4 20 -8 33 -8 13 0 32
-5 42 -10 37 -20 186 -41 325 -47 304 -12 552 57 805 223 36 23 74 51 85 61
11 10 43 36 70 58 28 21 52 42 55 46 3 3 31 9 63 12 107 11 163 79 155 186 -5
50 -9 58 -49 93 -41 36 -48 38 -109 38 -47 -1 -70 -5 -85 -18 -48 -42 -59 -64
-66 -128 -6 -61 -40 -134 -62 -134 -8 0 -28 -17 -95 -80 -15 -14 -48 -35 -74
-48 -26 -13 -50 -27 -53 -33 -4 -5 -14 -9 -24 -9 -10 0 -24 -7 -31 -15 -7 -8
-22 -15 -34 -15 -11 0 -30 -7 -40 -15 -11 -8 -30 -15 -42 -15 -13 0 -26 -4
-29 -10 -3 -5 -23 -10 -44 -10 -20 0 -46 -7 -57 -15 -10 -8 -37 -15 -59 -15
-22 0 -53 -7 -69 -15 -39 -21 -250 -21 -286 0 -14 8 -46 14 -71 15 -26 0 -60
7 -75 15 -16 8 -46 15 -66 15 -21 0 -38 5 -38 10 0 6 -8 10 -18 10 -10 0 -27
7 -38 15 -10 8 -28 15 -39 15 -11 0 -29 7 -39 15 -11 8 -26 15 -34 15 -8 0
-45 21 -83 48 -38 26 -79 52 -91 59 -23 13 -131 107 -190 167 -46 46 -156 202
-191 271 -165 327 -163 715 6 1065 59 124 174 272 276 357 182 151 358 236
577 278 104 20 366 25 435 7 24 -6 78 -18 119 -27 245 -55 428 -167 581 -356
43 -52 179 -262 197 -302 6 -15 12 -61 12 -102 0 -74 0 -75 40 -115 36 -36 45
-40 91 -40 158 0 214 186 84 279 -34 24 -48 44 -65 89 -56 152 -182 331 -319
454 -65 59 -166 126 -251 168 -36 17 -78 38 -93 46 -16 8 -39 14 -51 14 -12 0
-31 7 -42 15 -10 8 -31 15 -45 15 -15 0 -40 7 -55 15 -16 8 -54 15 -84 15 -31
0 -62 6 -68 13 -9 8 -68 13 -205 15 -159 2 -197 0 -221 -12z"/>
<path d="M2236 2588 c-9 -59 -17 -238 -27 -608 -5 -201 -12 -413 -15 -472 -3
-60 -2 -108 1 -108 8 0 340 169 1072 545 146 75 147 78 65 115 -75 34 -129 61
-177 88 -11 6 -40 22 -65 34 -25 13 -47 25 -50 28 -3 3 -39 22 -80 43 -75 38
-95 48 -127 67 -10 6 -25 13 -33 17 -8 4 -17 9 -20 13 -3 3 -29 17 -57 30 -29
14 -53 28 -53 32 0 5 -8 8 -18 8 -10 0 -23 5 -29 11 -14 14 -33 25 -158 89
-55 28 -120 62 -144 75 -61 34 -79 33 -85 -7z"/>
</g>
</svg>
